<svg width="818" height="788" viewBox="0 0 818 788" fill="none" xmlns="http://www.w3.org/2000/svg">
<path d="M732.5 410.5C732.5 606.254 589.222 764.5 413 764.5C236.778 764.5 93.5 606.254 93.5 410.5C93.5 214.746 236.778 56.5 413 56.5C589.222 56.5 732.5 214.746 732.5 410.5Z" stroke="#D9D9D9" stroke-opacity="0.34" stroke-width="5"/>
<path d="M763.5 412.5C763.5 608.029 606.332 766.5 412.5 766.5C218.668 766.5 61.5 608.029 61.5 412.5C61.5 216.971 218.668 58.5 412.5 58.5C606.332 58.5 763.5 216.971 763.5 412.5Z" stroke="#D9D9D9" stroke-opacity="0.34" stroke-width="5"/>
<path d="M788.5 406.5C788.5 615.819 619.037 785.5 410 785.5C200.963 785.5 31.5 615.819 31.5 406.5C31.5 197.181 200.963 27.5 410 27.5C619.037 27.5 788.5 197.181 788.5 406.5Z" stroke="#D9D9D9" stroke-opacity="0.34" stroke-width="5"/>
<g filter="url(#filter0_d_12_86)">
<ellipse cx="121.5" cy="151" rx="15.5" ry="14" fill="#FFE7A8"/>
</g>
<g filter="url(#filter1_d_12_86)">
<ellipse cx="673.5" cy="137" rx="15.5" ry="14" fill="#A0FFF2"/>
</g>
<g filter="url(#filter2_d_12_86)">
<ellipse cx="90.5" cy="540" rx="15.5" ry="14" fill="#A0FFF2"/>
</g>
<g filter="url(#filter3_d_12_86)">
<ellipse cx="739.5" cy="548" rx="15.5" ry="14" fill="#FFE7A8"/>
</g>
<g filter="url(#filter4_d_12_86)">
<path d="M28.5 332L34.2251 348.929L52.7519 348.929L37.7634 359.392L43.4885 376.321L28.5 365.858L13.5115 376.321L19.2366 359.392L4.24806 348.929L22.7749 348.929L28.5 332Z" fill="#F3A8FF"/>
</g>
<g filter="url(#filter5_d_12_86)">
<path d="M409.5 0L415.225 16.9291L433.752 16.9291L418.763 27.3918L424.489 44.3209L409.5 33.8582L394.511 44.3209L400.237 27.3918L385.248 16.9291L403.775 16.9291L409.5 0Z" fill="#F3A8FF"/>
</g>
<g filter="url(#filter6_d_12_86)">
<path d="M614.5 636L620.225 652.929L638.752 652.929L623.763 663.392L629.489 680.321L614.5 669.858L599.511 680.321L605.237 663.392L590.248 652.929L608.775 652.929L614.5 636Z" fill="#F3A8FF"/>
</g>
<g filter="url(#filter7_d_12_86)">
<path d="M789.5 328L795.225 344.929L813.752 344.929L798.763 355.392L804.489 372.321L789.5 361.858L774.511 372.321L780.237 355.392L765.248 344.929L783.775 344.929L789.5 328Z" fill="#F47AA9"/>
</g>
<g filter="url(#filter8_d_12_86)">
<path d="M196.5 636L202.225 652.929L220.752 652.929L205.763 663.392L211.489 680.321L196.5 669.858L181.511 680.321L187.237 663.392L172.248 652.929L190.775 652.929L196.5 636Z" fill="#F47AA9"/>
</g>
<g filter="url(#filter9_d_12_86)">
<path d="M196.5 636L202.225 652.929L220.752 652.929L205.763 663.392L211.489 680.321L196.5 669.858L181.511 680.321L187.237 663.392L172.248 652.929L190.775 652.929L196.5 636Z" fill="#F47AA9"/>
</g>
<defs>
<filter id="filter0_d_12_86" x="102" y="137" width="39" height="36" filterUnits="userSpaceOnUse" color-interpolation-filters="sRGB">
<feFlood flood-opacity="0" result="BackgroundImageFix"/>
<feColorMatrix in="SourceAlpha" type="matrix" values="0 0 0 0 0 0 0 0 0 0 0 0 0 0 0 0 0 0 127 0" result="hardAlpha"/>
<feOffset dy="4"/>
<feGaussianBlur stdDeviation="2"/>
<feComposite in2="hardAlpha" operator="out"/>
<feColorMatrix type="matrix" values="0 0 0 0 0 0 0 0 0 0 0 0 0 0 0 0 0 0 0.25 0"/>
<feBlend mode="normal" in2="BackgroundImageFix" result="effect1_dropShadow_12_86"/>
<feBlend mode="normal" in="SourceGraphic" in2="effect1_dropShadow_12_86" result="shape"/>
</filter>
<filter id="filter1_d_12_86" x="654" y="123" width="39" height="36" filterUnits="userSpaceOnUse" color-interpolation-filters="sRGB">
<feFlood flood-opacity="0" result="BackgroundImageFix"/>
<feColorMatrix in="SourceAlpha" type="matrix" values="0 0 0 0 0 0 0 0 0 0 0 0 0 0 0 0 0 0 127 0" result="hardAlpha"/>
<feOffset dy="4"/>
<feGaussianBlur stdDeviation="2"/>
<feComposite in2="hardAlpha" operator="out"/>
<feColorMatrix type="matrix" values="0 0 0 0 0 0 0 0 0 0 0 0 0 0 0 0 0 0 0.25 0"/>
<feBlend mode="normal" in2="BackgroundImageFix" result="effect1_dropShadow_12_86"/>
<feBlend mode="normal" in="SourceGraphic" in2="effect1_dropShadow_12_86" result="shape"/>
</filter>
<filter id="filter2_d_12_86" x="71" y="526" width="39" height="36" filterUnits="userSpaceOnUse" color-interpolation-filters="sRGB">
<feFlood flood-opacity="0" result="BackgroundImageFix"/>
<feColorMatrix in="SourceAlpha" type="matrix" values="0 0 0 0 0 0 0 0 0 0 0 0 0 0 0 0 0 0 127 0" result="hardAlpha"/>
<feOffset dy="4"/>
<feGaussianBlur stdDeviation="2"/>
<feComposite in2="hardAlpha" operator="out"/>
<feColorMatrix type="matrix" values="0 0 0 0 0 0 0 0 0 0 0 0 0 0 0 0 0 0 0.25 0"/>
<feBlend mode="normal" in2="BackgroundImageFix" result="effect1_dropShadow_12_86"/>
<feBlend mode="normal" in="SourceGraphic" in2="effect1_dropShadow_12_86" result="shape"/>
</filter>
<filter id="filter3_d_12_86" x="720" y="534" width="39" height="36" filterUnits="userSpaceOnUse" color-interpolation-filters="sRGB">
<feFlood flood-opacity="0" result="BackgroundImageFix"/>
<feColorMatrix in="SourceAlpha" type="matrix" values="0 0 0 0 0 0 0 0 0 0 0 0 0 0 0 0 0 0 127 0" result="hardAlpha"/>
<feOffset dy="4"/>
<feGaussianBlur stdDeviation="2"/>
<feComposite in2="hardAlpha" operator="out"/>
<feColorMatrix type="matrix" values="0 0 0 0 0 0 0 0 0 0 0 0 0 0 0 0 0 0 0.25 0"/>
<feBlend mode="normal" in2="BackgroundImageFix" result="effect1_dropShadow_12_86"/>
<feBlend mode="normal" in="SourceGraphic" in2="effect1_dropShadow_12_86" result="shape"/>
</filter>
<filter id="filter4_d_12_86" x="0.248047" y="332" width="56.5039" height="52.3208" filterUnits="userSpaceOnUse" color-interpolation-filters="sRGB">
<feFlood flood-opacity="0" result="BackgroundImageFix"/>
<feColorMatrix in="SourceAlpha" type="matrix" values="0 0 0 0 0 0 0 0 0 0 0 0 0 0 0 0 0 0 127 0" result="hardAlpha"/>
<feOffset dy="4"/>
<feGaussianBlur stdDeviation="2"/>
<feComposite in2="hardAlpha" operator="out"/>
<feColorMatrix type="matrix" values="0 0 0 0 0 0 0 0 0 0 0 0 0 0 0 0 0 0 0.25 0"/>
<feBlend mode="normal" in2="BackgroundImageFix" result="effect1_dropShadow_12_86"/>
<feBlend mode="normal" in="SourceGraphic" in2="effect1_dropShadow_12_86" result="shape"/>
</filter>
<filter id="filter5_d_12_86" x="381.248" y="0" width="56.5039" height="52.3208" filterUnits="userSpaceOnUse" color-interpolation-filters="sRGB">
<feFlood flood-opacity="0" result="BackgroundImageFix"/>
<feColorMatrix in="SourceAlpha" type="matrix" values="0 0 0 0 0 0 0 0 0 0 0 0 0 0 0 0 0 0 127 0" result="hardAlpha"/>
<feOffset dy="4"/>
<feGaussianBlur stdDeviation="2"/>
<feComposite in2="hardAlpha" operator="out"/>
<feColorMatrix type="matrix" values="0 0 0 0 0 0 0 0 0 0 0 0 0 0 0 0 0 0 0.25 0"/>
<feBlend mode="normal" in2="BackgroundImageFix" result="effect1_dropShadow_12_86"/>
<feBlend mode="normal" in="SourceGraphic" in2="effect1_dropShadow_12_86" result="shape"/>
</filter>
<filter id="filter6_d_12_86" x="586.248" y="636" width="56.5039" height="52.3208" filterUnits="userSpaceOnUse" color-interpolation-filters="sRGB">
<feFlood flood-opacity="0" result="BackgroundImageFix"/>
<feColorMatrix in="SourceAlpha" type="matrix" values="0 0 0 0 0 0 0 0 0 0 0 0 0 0 0 0 0 0 127 0" result="hardAlpha"/>
<feOffset dy="4"/>
<feGaussianBlur stdDeviation="2"/>
<feComposite in2="hardAlpha" operator="out"/>
<feColorMatrix type="matrix" values="0 0 0 0 0 0 0 0 0 0 0 0 0 0 0 0 0 0 0.25 0"/>
<feBlend mode="normal" in2="BackgroundImageFix" result="effect1_dropShadow_12_86"/>
<feBlend mode="normal" in="SourceGraphic" in2="effect1_dropShadow_12_86" result="shape"/>
</filter>
<filter id="filter7_d_12_86" x="761.248" y="328" width="56.5039" height="52.3208" filterUnits="userSpaceOnUse" color-interpolation-filters="sRGB">
<feFlood flood-opacity="0" result="BackgroundImageFix"/>
<feColorMatrix in="SourceAlpha" type="matrix" values="0 0 0 0 0 0 0 0 0 0 0 0 0 0 0 0 0 0 127 0" result="hardAlpha"/>
<feOffset dy="4"/>
<feGaussianBlur stdDeviation="2"/>
<feComposite in2="hardAlpha" operator="out"/>
<feColorMatrix type="matrix" values="0 0 0 0 0 0 0 0 0 0 0 0 0 0 0 0 0 0 0.25 0"/>
<feBlend mode="normal" in2="BackgroundImageFix" result="effect1_dropShadow_12_86"/>
<feBlend mode="normal" in="SourceGraphic" in2="effect1_dropShadow_12_86" result="shape"/>
</filter>
<filter id="filter8_d_12_86" x="168.248" y="636" width="56.5039" height="52.3208" filterUnits="userSpaceOnUse" color-interpolation-filters="sRGB">
<feFlood flood-opacity="0" result="BackgroundImageFix"/>
<feColorMatrix in="SourceAlpha" type="matrix" values="0 0 0 0 0 0 0 0 0 0 0 0 0 0 0 0 0 0 127 0" result="hardAlpha"/>
<feOffset dy="4"/>
<feGaussianBlur stdDeviation="2"/>
<feComposite in2="hardAlpha" operator="out"/>
<feColorMatrix type="matrix" values="0 0 0 0 0 0 0 0 0 0 0 0 0 0 0 0 0 0 0.25 0"/>
<feBlend mode="normal" in2="BackgroundImageFix" result="effect1_dropShadow_12_86"/>
<feBlend mode="normal" in="SourceGraphic" in2="effect1_dropShadow_12_86" result="shape"/>
</filter>
<filter id="filter9_d_12_86" x="168.248" y="636" width="56.5039" height="52.3208" filterUnits="userSpaceOnUse" color-interpolation-filters="sRGB">
<feFlood flood-opacity="0" result="BackgroundImageFix"/>
<feColorMatrix in="SourceAlpha" type="matrix" values="0 0 0 0 0 0 0 0 0 0 0 0 0 0 0 0 0 0 127 0" result="hardAlpha"/>
<feOffset dy="4"/>
<feGaussianBlur stdDeviation="2"/>
<feComposite in2="hardAlpha" operator="out"/>
<feColorMatrix type="matrix" values="0 0 0 0 0 0 0 0 0 0 0 0 0 0 0 0 0 0 0.25 0"/>
<feBlend mode="normal" in2="BackgroundImageFix" result="effect1_dropShadow_12_86"/>
<feBlend mode="normal" in="SourceGraphic" in2="effect1_dropShadow_12_86" result="shape"/>
</filter>
</defs>
</svg>
