<svg width="814" height="763" viewBox="0 0 814 763" fill="none" xmlns="http://www.w3.org/2000/svg">
<path d="M727.5 385.5C727.5 581.254 584.222 739.5 408 739.5C231.778 739.5 88.5 581.254 88.5 385.5C88.5 189.746 231.778 31.5 408 31.5C584.222 31.5 727.5 189.746 727.5 385.5Z" stroke="#D9D9D9" stroke-opacity="0.34" stroke-width="5"/>
<path d="M758.5 387.5C758.5 583.029 601.332 741.5 407.5 741.5C213.668 741.5 56.5 583.029 56.5 387.5C56.5 191.971 213.668 33.5 407.5 33.5C601.332 33.5 758.5 191.971 758.5 387.5Z" stroke="#D9D9D9" stroke-opacity="0.34" stroke-width="5"/>
<path d="M783.5 381.5C783.5 590.819 614.037 760.5 405 760.5C195.963 760.5 26.5 590.819 26.5 381.5C26.5 172.181 195.963 2.5 405 2.5C614.037 2.5 783.5 172.181 783.5 381.5Z" stroke="#D9D9D9" stroke-opacity="0.34" stroke-width="5"/>
<g filter="url(#filter0_d_12_86)">
<ellipse cx="116.5" cy="126" rx="15.5" ry="14" fill="#FFE7A8"/>
</g>
<g filter="url(#filter1_d_12_86)">
<ellipse cx="628.5" cy="636" rx="15.5" ry="14" fill="#A0FFF2"/>
</g>
<g filter="url(#filter2_d_12_86)">
<ellipse cx="85.5" cy="515" rx="15.5" ry="14" fill="#A0FFF2"/>
</g>
<g filter="url(#filter3_d_12_86)">
<ellipse cx="728.5" cy="533" rx="15.5" ry="14" fill="#FFE7A8"/>
</g>
<g filter="url(#filter4_d_12_86)">
<path d="M28.5 339L34.2251 355.929L52.7519 355.929L37.7634 366.392L43.4885 383.321L28.5 372.858L13.5115 383.321L19.2366 366.392L4.24806 355.929L22.7749 355.929L28.5 339Z" fill="#F3A8FF"/>
</g>
<g filter="url(#filter5_d_12_86)">
<path d="M785.5 339L791.225 355.929L809.752 355.929L794.763 366.392L800.489 383.321L785.5 372.858L770.511 383.321L776.237 366.392L761.248 355.929L779.775 355.929L785.5 339Z" fill="#F3A8FF"/>
</g>
<g filter="url(#filter6_d_12_86)">
<path d="M687.5 101L693.225 117.929L711.752 117.929L696.763 128.392L702.489 145.321L687.5 134.858L672.511 145.321L678.237 128.392L663.248 117.929L681.775 117.929L687.5 101Z" fill="#F47AA9"/>
</g>
<g filter="url(#filter7_d_12_86)">
<path d="M191.5 611L197.225 627.929L215.752 627.929L200.763 638.392L206.489 655.321L191.5 644.858L176.511 655.321L182.237 638.392L167.248 627.929L185.775 627.929L191.5 611Z" fill="#F47AA9"/>
</g>
<defs>
<filter id="filter0_d_12_86" x="97" y="112" width="39" height="36" filterUnits="userSpaceOnUse" color-interpolation-filters="sRGB">
<feFlood flood-opacity="0" result="BackgroundImageFix"/>
<feColorMatrix in="SourceAlpha" type="matrix" values="0 0 0 0 0 0 0 0 0 0 0 0 0 0 0 0 0 0 127 0" result="hardAlpha"/>
<feOffset dy="4"/>
<feGaussianBlur stdDeviation="2"/>
<feComposite in2="hardAlpha" operator="out"/>
<feColorMatrix type="matrix" values="0 0 0 0 0 0 0 0 0 0 0 0 0 0 0 0 0 0 0.25 0"/>
<feBlend mode="normal" in2="BackgroundImageFix" result="effect1_dropShadow_12_86"/>
<feBlend mode="normal" in="SourceGraphic" in2="effect1_dropShadow_12_86" result="shape"/>
</filter>
<filter id="filter1_d_12_86" x="609" y="622" width="39" height="36" filterUnits="userSpaceOnUse" color-interpolation-filters="sRGB">
<feFlood flood-opacity="0" result="BackgroundImageFix"/>
<feColorMatrix in="SourceAlpha" type="matrix" values="0 0 0 0 0 0 0 0 0 0 0 0 0 0 0 0 0 0 127 0" result="hardAlpha"/>
<feOffset dy="4"/>
<feGaussianBlur stdDeviation="2"/>
<feComposite in2="hardAlpha" operator="out"/>
<feColorMatrix type="matrix" values="0 0 0 0 0 0 0 0 0 0 0 0 0 0 0 0 0 0 0.25 0"/>
<feBlend mode="normal" in2="BackgroundImageFix" result="effect1_dropShadow_12_86"/>
<feBlend mode="normal" in="SourceGraphic" in2="effect1_dropShadow_12_86" result="shape"/>
</filter>
<filter id="filter2_d_12_86" x="66" y="501" width="39" height="36" filterUnits="userSpaceOnUse" color-interpolation-filters="sRGB">
<feFlood flood-opacity="0" result="BackgroundImageFix"/>
<feColorMatrix in="SourceAlpha" type="matrix" values="0 0 0 0 0 0 0 0 0 0 0 0 0 0 0 0 0 0 127 0" result="hardAlpha"/>
<feOffset dy="4"/>
<feGaussianBlur stdDeviation="2"/>
<feComposite in2="hardAlpha" operator="out"/>
<feColorMatrix type="matrix" values="0 0 0 0 0 0 0 0 0 0 0 0 0 0 0 0 0 0 0.25 0"/>
<feBlend mode="normal" in2="BackgroundImageFix" result="effect1_dropShadow_12_86"/>
<feBlend mode="normal" in="SourceGraphic" in2="effect1_dropShadow_12_86" result="shape"/>
</filter>
<filter id="filter3_d_12_86" x="709" y="519" width="39" height="36" filterUnits="userSpaceOnUse" color-interpolation-filters="sRGB">
<feFlood flood-opacity="0" result="BackgroundImageFix"/>
<feColorMatrix in="SourceAlpha" type="matrix" values="0 0 0 0 0 0 0 0 0 0 0 0 0 0 0 0 0 0 127 0" result="hardAlpha"/>
<feOffset dy="4"/>
<feGaussianBlur stdDeviation="2"/>
<feComposite in2="hardAlpha" operator="out"/>
<feColorMatrix type="matrix" values="0 0 0 0 0 0 0 0 0 0 0 0 0 0 0 0 0 0 0.25 0"/>
<feBlend mode="normal" in2="BackgroundImageFix" result="effect1_dropShadow_12_86"/>
<feBlend mode="normal" in="SourceGraphic" in2="effect1_dropShadow_12_86" result="shape"/>
</filter>
<filter id="filter4_d_12_86" x="0.248047" y="339" width="56.5039" height="52.3208" filterUnits="userSpaceOnUse" color-interpolation-filters="sRGB">
<feFlood flood-opacity="0" result="BackgroundImageFix"/>
<feColorMatrix in="SourceAlpha" type="matrix" values="0 0 0 0 0 0 0 0 0 0 0 0 0 0 0 0 0 0 127 0" result="hardAlpha"/>
<feOffset dy="4"/>
<feGaussianBlur stdDeviation="2"/>
<feComposite in2="hardAlpha" operator="out"/>
<feColorMatrix type="matrix" values="0 0 0 0 0 0 0 0 0 0 0 0 0 0 0 0 0 0 0.25 0"/>
<feBlend mode="normal" in2="BackgroundImageFix" result="effect1_dropShadow_12_86"/>
<feBlend mode="normal" in="SourceGraphic" in2="effect1_dropShadow_12_86" result="shape"/>
</filter>
<filter id="filter5_d_12_86" x="757.248" y="339" width="56.5039" height="52.3208" filterUnits="userSpaceOnUse" color-interpolation-filters="sRGB">
<feFlood flood-opacity="0" result="BackgroundImageFix"/>
<feColorMatrix in="SourceAlpha" type="matrix" values="0 0 0 0 0 0 0 0 0 0 0 0 0 0 0 0 0 0 127 0" result="hardAlpha"/>
<feOffset dy="4"/>
<feGaussianBlur stdDeviation="2"/>
<feComposite in2="hardAlpha" operator="out"/>
<feColorMatrix type="matrix" values="0 0 0 0 0 0 0 0 0 0 0 0 0 0 0 0 0 0 0.25 0"/>
<feBlend mode="normal" in2="BackgroundImageFix" result="effect1_dropShadow_12_86"/>
<feBlend mode="normal" in="SourceGraphic" in2="effect1_dropShadow_12_86" result="shape"/>
</filter>
<filter id="filter6_d_12_86" x="659.248" y="101" width="56.5039" height="52.3208" filterUnits="userSpaceOnUse" color-interpolation-filters="sRGB">
<feFlood flood-opacity="0" result="BackgroundImageFix"/>
<feColorMatrix in="SourceAlpha" type="matrix" values="0 0 0 0 0 0 0 0 0 0 0 0 0 0 0 0 0 0 127 0" result="hardAlpha"/>
<feOffset dy="4"/>
<feGaussianBlur stdDeviation="2"/>
<feComposite in2="hardAlpha" operator="out"/>
<feColorMatrix type="matrix" values="0 0 0 0 0 0 0 0 0 0 0 0 0 0 0 0 0 0 0.25 0"/>
<feBlend mode="normal" in2="BackgroundImageFix" result="effect1_dropShadow_12_86"/>
<feBlend mode="normal" in="SourceGraphic" in2="effect1_dropShadow_12_86" result="shape"/>
</filter>
<filter id="filter7_d_12_86" x="163.248" y="611" width="56.5039" height="52.3208" filterUnits="userSpaceOnUse" color-interpolation-filters="sRGB">
<feFlood flood-opacity="0" result="BackgroundImageFix"/>
<feColorMatrix in="SourceAlpha" type="matrix" values="0 0 0 0 0 0 0 0 0 0 0 0 0 0 0 0 0 0 127 0" result="hardAlpha"/>
<feOffset dy="4"/>
<feGaussianBlur stdDeviation="2"/>
<feComposite in2="hardAlpha" operator="out"/>
<feColorMatrix type="matrix" values="0 0 0 0 0 0 0 0 0 0 0 0 0 0 0 0 0 0 0.25 0"/>
<feBlend mode="normal" in2="BackgroundImageFix" result="effect1_dropShadow_12_86"/>
<feBlend mode="normal" in="SourceGraphic" in2="effect1_dropShadow_12_86" result="shape"/>
</filter>
</defs>
</svg>
